<?xml version="1.0" encoding="utf-8"?>
<!-- Generator: Adobe Illustrator 24.1.1, SVG Export Plug-In . SVG Version: 6.00 Build 0)  -->
<svg version="1.1" id="Layer_1" xmlns="http://www.w3.org/2000/svg" xmlns:xlink="http://www.w3.org/1999/xlink" x="0px" y="0px"
	 viewBox="0 0 512 512" style="enable-background:new 0 0 512 512;" xml:space="preserve">
<style type="text/css">
	.st0{fill:#333333;}
</style>
<g id="XMLID_2_">
	<path id="XMLID_6_" class="st0" d="M26.8,48.9C11.8,48.9,0,60.7,0,75.7s11.8,26.8,26.8,26.8h33.9L123.1,359
		c-2.4,1.6-4.7,3.2-7.1,4.7c-15.8,9.5-26,26.8-26,45.8c0,30,24.5,54.4,54.4,54.4c30,0,54.4-24.5,54.4-54.4h144.4
		c0,30,24.5,54.4,54.4,54.4s54.4-24.5,54.4-54.4c0-19.7-10.3-37.1-26-46.5c-4.7-4.7-11.8-7.9-18.9-7.9H177.5v-1.6L110.4,72.6
		c-0.8-3.2-2.4-5.5-3.9-7.9l-0.8-1.6l0,0c-4.7-8.7-13.4-15-23.7-15H26.8V48.9z M168,103.3L206.7,284h235.1L512,103.3H168z"/>
</g>
</svg>
