<?xml version="1.0" encoding="utf-8"?>
<!-- Generator: Adobe Illustrator 25.2.0, SVG Export Plug-In . SVG Version: 6.00 Build 0)  -->
<svg version="1.1" id="Layer_1" xmlns="http://www.w3.org/2000/svg" xmlns:xlink="http://www.w3.org/1999/xlink" x="0px" y="0px"
	 viewBox="0 0 512 512" style="enable-background:new 0 0 512 512;" xml:space="preserve">
<style type="text/css">
	.st0{fill:#E8DFE0;}
	.st1{fill:#8D9B6A;}
</style>
<circle class="st0" cx="256" cy="256" r="256.1"/>
<g>
	<path class="st1" d="M9.5,186.8c-6.3,22.2-9.6,45.6-9.6,69.8s3.4,47.6,9.6,69.8V186.8z"/>
	<path class="st1" d="M307.6,305c0-47.9-24.2-83.9-88.6-83.9c-67.1,0-96.7,41.2-96.7,83.9V475c38.9,23.9,84.7,37.6,133.6,37.6
		c17.7,0,35-1.8,51.7-5.2V305z"/>
	<path class="st1" d="M255.9,0.5c-47.2,0-91.4,12.8-129.4,35.1l-4.2,149.3c25.1-30.2,66.2-54.5,132.5-54.5
		c114.6,0,166.5,76.6,166.5,155.4v166.3c55.5-47,90.7-117.1,90.7-195.5C512,115.1,397.4,0.5,255.9,0.5z"/>
</g>
</svg>
